<svg width="343" height="55" viewBox="0 0 343 55" fill="none" xmlns="http://www.w3.org/2000/svg">
<path d="M10.3165 18.7985H5.48671V47.2215H2.0238V15.54H13.7794V47.2215H10.3165V18.7985Z" fill="#002F6C"/>
<path d="M33.3741 14.9045C42.6256 14.9045 50.1438 22.2833 50.1438 31.3798C50.1438 40.4783 42.6256 47.8551 33.3741 47.8551C24.1245 47.8551 16.6045 40.4783 16.6045 31.3798C16.6045 22.2833 24.1245 14.9045 33.3741 14.9045ZM33.3741 44.5967C40.803 44.5967 46.6808 38.6662 46.6808 31.3798C46.6808 24.0935 40.803 18.1649 33.3741 18.1649C25.9471 18.1649 20.0693 24.0935 20.0693 31.3798C20.0693 38.6662 25.9471 44.5967 33.3741 44.5967Z" fill="#002F6C"/>
<path d="M52.9649 15.54H56.4278V19.3415L56.1544 30.5199L62.5335 15.54H66.0875L59.2053 31.6513L66.0875 47.2215H62.4879L56.1981 32.8733L56.4259 43.0107V47.2196H52.963V15.54H52.9649Z" fill="#002F6C"/>
<path d="M75.7035 21.8759L76.5236 15.54H79.8954L75.7946 47.2215H72.4228L73.1519 41.5192H71.1926L67.3633 15.54H70.7351L71.6919 21.8759L73.7879 37.4461L75.7035 21.8759Z" fill="#002F6C"/>
<path d="M90.829 18.7985H85.9992V47.2215H82.5363V15.54H94.2919V47.2215H90.829V18.7985Z" fill="#002F6C"/>
<path d="M105.82 15.54L109.465 47.2215H106.093L105.683 43.8725H100.58L100.215 47.2215H96.8435L100.489 15.54H105.82ZM100.99 40.614H105.319L103.131 19.3415L100.99 40.614Z" fill="#002F6C"/>
<path d="M115.479 15.54V19.2963L115.024 42.9674L119.491 19.3868L120.265 15.54H125.779V47.2215H122.316V43.1032L122.772 19.6131L118.397 42.9674L117.532 47.2215H112.018V15.54H115.479ZM117.302 9.24744V9.42846C117.302 10.1526 118.031 10.7862 118.851 10.7862C119.717 10.7862 120.446 10.1526 120.446 9.42846V9.24744H123.362V9.51898C123.362 11.8271 121.312 13.5921 118.851 13.5921C116.436 13.5921 114.386 11.8271 114.386 9.51898V9.24744H117.302Z" fill="#002F6C"/>
<path d="M209.111 18.2497H204.281V46.6727H200.818V14.9912H212.574V46.6727H209.111V18.2497Z" fill="#002F6C"/>
<path d="M216.036 14.9912H218.132C225.288 14.9912 231.073 20.6935 231.073 27.7102C231.073 34.2724 226.015 39.7032 219.499 40.3821V46.6727H216.036V14.9912ZM219.499 18.3402V37.0783C224.238 36.8068 227.61 32.4622 227.61 27.7102C227.612 22.9564 224.329 18.7475 219.499 18.3402Z" fill="#002F6C"/>
<path d="M249.618 14.3577C258.869 14.3577 266.387 21.7364 266.387 30.833C266.387 39.9314 258.869 47.3083 249.618 47.3083C240.368 47.3083 232.848 39.9314 232.848 30.833C232.85 21.7345 240.368 14.3577 249.618 14.3577ZM249.618 44.0479C257.046 44.0479 262.924 38.1174 262.924 30.8311C262.924 23.5448 257.046 17.6161 249.618 17.6161C242.191 17.6161 236.313 23.5448 236.313 30.8311C236.313 38.1174 242.191 44.0479 249.618 44.0479Z" fill="#002F6C"/>
<path d="M279.918 43.4143H281.923V49.3881H278.46V46.6727H269.666V49.3881H266.203V43.4143H268.208L271.397 14.9912H276.728L279.918 43.4143ZM274.04 18.9738L271.99 40.0653L271.579 43.4143H276.5L276.136 40.1105L274.04 18.9738Z" fill="#002F6C"/>
<path d="M291.812 14.9912L295.457 46.6727H292.086L291.675 43.3237H286.572L286.208 46.6727H282.836L286.481 14.9912H291.812ZM286.98 40.0653H291.309L289.122 18.7928L286.98 40.0653Z" fill="#002F6C"/>
<path d="M298.007 46.6727V14.9912H299.51C304.204 14.9912 307.532 18.9285 307.532 22.9111C307.532 24.8119 306.894 26.5317 305.618 27.7536C309.081 29.4733 311.314 32.7771 311.314 36.5786C311.314 42.1452 306.666 46.6727 301.014 46.6727H298.007ZM301.47 18.6117V27.2124C303.019 26.443 304.067 24.7685 304.067 22.913C304.067 21.0575 303.019 19.4264 301.47 18.6117ZM301.47 29.7468V43.4595C304.978 43.188 307.849 40.1105 307.849 36.5805C307.849 33.0958 304.978 30.0183 301.47 29.7468Z" fill="#002F6C"/>
<path d="M321.518 14.9912L325.163 46.6727H321.792L321.382 43.3237H316.278L315.914 46.6727H312.542L316.187 14.9912H321.518ZM316.688 40.0653H321.017L318.83 18.7928L316.688 40.0653Z" fill="#002F6C"/>
<path d="M331.176 14.9912V18.7475L330.72 42.4186L335.188 18.838L335.962 14.9912H341.476V46.6727H338.013V42.5544L338.468 19.0643L334.094 42.4186L333.228 46.6727H327.715V14.9912H331.176ZM332.999 8.70056V8.88159C332.999 9.60569 333.728 10.2393 334.548 10.2393C335.414 10.2393 336.143 9.60569 336.143 8.88159V8.70056H339.059V8.9721C339.059 11.2802 337.008 13.0452 334.548 13.0452C332.133 13.0452 330.083 11.2802 330.083 8.9721V8.70056H332.999Z" fill="#002F6C"/>
<path fill-rule="evenodd" clip-rule="evenodd" d="M163.802 0.7901H190.606V27.4123C190.606 42.0547 178.544 54.0345 163.802 54.0345C149.06 54.0345 136.999 42.0547 136.999 27.4123C137.001 12.7699 149.06 0.7901 163.802 0.7901Z" fill="#0447BB"/>
<path d="M154 26.712V16H175V38H164.559V26.712" stroke="white" stroke-width="0.7" stroke-miterlimit="22.9256"/>
<path d="M156 14H151V19H156V14Z" fill="white" stroke="white" stroke-width="0.4252" stroke-miterlimit="22.9256"/>
<path d="M167 14H162V19H167V14Z" fill="white" stroke="white" stroke-width="0.4252" stroke-miterlimit="22.9256"/>
<path d="M178 14H173V19H178V14Z" fill="white" stroke="white" stroke-width="0.4252" stroke-miterlimit="22.9256"/>
<path d="M156 25H151V30H156V25Z" fill="white" stroke="white" stroke-width="0.4252" stroke-miterlimit="22.9256"/>
<path d="M167 25H162V30H167V25Z" fill="white" stroke="white" stroke-width="0.4252" stroke-miterlimit="22.9256"/>
<path d="M178 25H173V30H178V25Z" fill="white" stroke="white" stroke-width="0.4252" stroke-miterlimit="22.9256"/>
<path d="M167 35H162V40H167V35Z" fill="white" stroke="white" stroke-width="0.4252" stroke-miterlimit="22.9256"/>
<path d="M178 35H173V40H178V35Z" fill="white" stroke="white" stroke-width="0.4252" stroke-miterlimit="22.9256"/>
</svg>
