<svg width="483" height="485" viewBox="0 0 483 485" fill="none" xmlns="http://www.w3.org/2000/svg">
<path fill-rule="evenodd" clip-rule="evenodd" d="M2.81714 360.946C1.84893 350.697 0.838257 340.451 0.00254183 330.19C-0.0586081 329.444 0.996228 328.139 1.80137 327.859C10.7327 324.743 19.7166 321.778 28.6869 318.772C28.9995 319.584 29.312 320.395 29.6229 321.208C22.3121 323.951 15.0013 326.693 6.24323 329.979C28.3574 341.593 49.2095 352.559 70.0769 363.499C117.393 388.303 164.749 413.038 211.987 437.994C216.421 440.334 219.85 440.735 224.419 438.242C235.306 432.3 246.544 426.999 257.763 421.378C258.278 424.179 258.726 426.635 259.214 429.282C247.644 435.148 235.907 440.759 224.582 447.104C222.091 448.501 219.906 452.39 219.597 455.343C218.872 462.274 219.364 469.331 219.364 478.049C305.704 432.161 390.796 386.934 476.945 341.148C477.322 335.424 477.831 327.634 478.428 318.589C470.043 322.741 462.569 326.445 454.963 330.217C453.699 322.897 453.703 322.903 460.752 319.324C465.238 317.046 469.709 314.745 475.81 311.622C468.53 309.107 462.855 307.147 455.376 304.564C459.131 320.11 446.944 321.471 438.478 325.738C410.779 339.697 382.901 353.304 353.109 368.027C354.224 335.385 355.285 304.289 356.371 272.481C354.181 273.036 352.343 273.277 350.684 273.956C314.857 288.639 279.007 303.269 243.32 318.284C240.439 319.497 236.758 323.384 236.719 326.076C236.257 357.452 236.423 388.836 236.423 422.195C275.332 403.003 312.981 384.434 350.629 365.865C351.042 366.625 351.455 367.385 351.868 368.147C349.634 369.502 347.485 371.033 345.15 372.185C310.428 389.315 275.719 406.479 240.858 423.325C238.146 424.635 233.711 424.83 231.085 423.524C167.811 392.068 104.778 360.133 41.3908 328.912C33.4821 325.016 31.1397 320.314 30.6675 312.299C28.157 269.683 25.2388 227.09 22.448 184.49C19.5467 140.197 16.6047 95.9082 13.7664 51.6113C13.4623 46.8608 13.7256 42.0764 13.7256 36.8185C36.2033 33.2357 58.7048 29.6088 81.2181 26.065C136.523 17.3601 191.752 8.10359 247.203 0.461105C259.616 -1.25137 272.899 2.21261 285.639 4.21022C318.522 9.3697 351.282 15.3252 384.173 20.4236C413.654 24.9924 443.249 28.8468 473.415 33.105C471.574 61.4601 469.749 89.3112 467.954 117.164C464.098 176.977 460.227 236.789 456.534 296.614C456.41 298.628 457.599 301.985 459.08 302.624C466.182 305.682 473.593 308.019 482.156 311.059C481.431 320.992 480.739 331.824 479.747 342.632C479.588 344.378 478.512 346.91 477.15 347.54C467.922 351.803 458.493 355.632 449.15 359.651C447.085 360.541 445.082 361.586 443.096 362.642C424.621 372.453 405.96 381.94 387.754 392.229C375.278 399.277 364.344 410.151 351.13 414.573C320.744 424.744 294.674 442.821 266.494 456.924C251.753 464.302 238.219 474.129 224.355 483.177C220.125 485.936 216.995 485.307 212.874 482.999C144.797 444.856 76.6081 406.913 8.57372 368.696C5.96806 367.233 4.64994 363.482 2.7407 360.807C4.76204 362.374 6.77489 363.926 9.75935 366.228C9.15634 354.78 8.64506 345.099 8.08792 334.529C7.06875 334.107 4.87415 333.197 2.82563 332.347C2.81714 342.214 2.81714 351.579 2.81714 360.946ZM128.433 59.9174C128.378 60.3196 128.324 60.7218 128.27 61.1224C134.745 62.8705 141.221 64.6203 147.697 66.3684C147.471 67.2238 147.245 68.0809 147.019 68.9363C103.813 59.0959 60.6089 49.2573 16.6863 39.254C16.6863 41.7285 16.6115 43.1049 16.6965 44.4695C18.5225 73.5255 20.2398 102.59 22.4412 131.619C22.6212 133.997 25.7059 137.305 28.1536 138.174C43.0572 143.469 58.1748 148.163 73.2024 153.114C75.5753 153.896 77.8549 154.967 80.1769 155.904C79.8813 156.676 79.5841 157.45 79.2902 158.223C60.8229 152.32 42.3573 146.417 22.7996 140.168C24.8192 170.347 26.5909 198.803 28.8636 227.219C29.0606 229.676 32.1113 232.901 34.6168 234.018C48.5505 240.223 62.7356 245.862 76.8068 251.762C79.3785 252.84 81.8262 254.214 84.33 255.452C83.9597 256.212 83.5894 256.972 83.2191 257.734C65.4669 250.409 47.7165 243.082 29.1252 235.411C30.9138 263.768 32.5615 290.82 34.4571 317.854C34.5862 319.699 36.1608 322.226 37.7762 323.063C55.0154 331.985 72.3972 340.631 91.0259 349.998C86.3836 251.45 81.8007 154.18 77.2179 56.9116C78.0859 56.8319 78.9539 56.7521 79.8219 56.6723C80.2618 61.4975 80.8767 66.3141 81.1145 71.1477C82.402 97.4068 83.7881 123.661 84.6646 149.935C84.848 155.448 86.7946 157.812 91.8276 159.375C109.632 164.904 127.313 170.833 145.055 176.566C147.313 177.297 149.655 177.764 152.597 178.518C151.6 143.63 150.751 109.735 149.553 75.8507C149.339 69.7883 150.601 66.92 157.28 65.6709C193.393 58.9092 229.4 51.5773 265.434 44.4067C267.08 44.0791 268.654 43.3951 270.265 42.8775C262.02 40.2689 253.622 37.1121 245.966 38.3884C206.684 44.9345 167.592 52.6279 128.433 59.9174ZM463.573 135.818C386.888 160.487 311.624 184.699 236.751 208.785C236.751 245.189 236.751 280.689 236.751 316.427C238.113 316.284 238.998 316.386 239.719 316.091C277.124 300.777 314.561 285.531 351.808 269.846C354.179 268.848 356.357 264.476 356.5 261.568C357.859 233.887 358.744 206.185 359.814 178.49C359.899 176.288 360.349 174.1 360.627 171.904C361.404 172 362.182 172.097 362.96 172.194C361.927 203.302 360.892 234.41 359.82 266.741C392.948 253.189 424.971 240.09 457.662 226.718C459.576 197.278 461.535 167.146 463.573 135.818ZM362.411 56.579C362.195 57.8655 361.978 59.1536 361.762 60.4401C320.034 69.902 278.304 79.3639 236.712 88.7969C236.712 127.843 236.712 166.305 236.712 205.491C277.054 192.496 316.565 179.864 355.936 166.809C357.989 166.128 359.97 161.887 360.085 159.219C361.448 128.167 362.689 97.1047 363.347 66.0341C363.493 59.1418 365.215 55.7728 372.285 54.7053C380.644 53.4409 388.856 51.1938 397.12 49.3201C417.133 44.7818 437.141 40.2163 457.152 35.661C442.906 31.5351 428.937 28.7025 414.482 33.324C407.793 35.4624 400.687 36.2907 393.777 37.7554C375.11 41.7132 356.445 45.6965 335.782 50.0957C346.096 52.6075 354.254 54.5933 362.411 56.579ZM85.5479 160.639C85.5479 163.981 85.4544 166.198 85.5615 168.406C88.1077 221.151 91.7733 273.88 92.6531 326.651C92.9708 345.649 98.0411 356.618 116.192 363.061C130.352 368.086 143.409 376.211 157.321 383.14C157.603 381.272 157.851 380.45 157.83 379.637C156.151 315.551 154.382 251.467 152.884 187.377C152.765 182.307 149.923 181.411 146.348 180.256C129.7 174.87 113.074 169.417 96.4325 164.012C93.037 162.907 89.6109 161.895 85.5479 160.639ZM365.817 163.869C364.631 163.754 365.239 163.99 365.723 163.835C396.935 153.9 428.167 144.022 459.271 133.757C461.35 133.072 463.605 129.513 463.811 127.121C465.304 109.676 466.286 92.1845 467.444 74.7085C468.28 62.1169 469.136 49.5254 470.04 36.1006C436.278 43.6905 403.517 50.9731 370.843 58.6292C369.137 59.028 367.24 62.5345 367.038 64.7408C366.275 73.1725 365.912 81.6636 365.864 90.1326C365.727 114.647 365.817 139.16 365.817 163.869ZM152.741 70.3959C153.764 106.433 154.661 141.398 156.003 176.345C156.077 178.309 159.504 181.058 161.904 181.875C183.814 189.327 205.84 196.443 227.849 203.606C229.281 204.071 230.857 204.093 232.525 204.346C232.525 165.565 232.525 127.493 232.525 88.6968C206.105 82.6344 179.889 76.6229 152.741 70.3959ZM457.351 231.664C455.936 231.448 455.294 231.134 454.853 231.314C424.543 243.685 394.204 255.985 364.05 268.727C361.847 269.659 359.843 273.754 359.71 276.475C358.489 301.575 357.689 326.695 356.802 351.812C356.688 355.031 356.787 358.261 356.787 362.674C388.35 347.089 418.664 332.163 448.89 317.067C450.314 316.356 451.734 314.151 451.849 312.549C453.81 285.574 455.561 258.58 457.351 231.664ZM232.707 316.678C232.707 279.834 232.707 244.07 232.707 208.41C207.112 200.106 181.973 191.953 157.956 184.161C157.956 210.153 159.495 235.97 157.458 261.5C155.897 281.073 163.161 290.175 181.079 295.714C198.483 301.094 214.995 309.35 232.707 316.678ZM161.173 290.404C161.173 321.03 161.066 350.899 161.384 380.761C161.409 383.061 163.922 386.312 166.138 387.458C187.434 398.463 208.911 409.121 230.361 419.824C231.205 420.245 232.311 420.139 233.106 420.251C233.106 386.497 233.106 353.253 233.106 320.285C208.362 310.006 184.242 299.988 161.173 290.404ZM203.414 470.018C203.414 462.091 203.056 455.913 203.521 449.8C203.943 444.26 202.055 441.157 196.983 438.591C178.105 429.039 159.498 418.953 140.732 409.179C138.621 408.081 135.681 406.496 133.907 407.174C125.995 410.207 118.367 413.982 109.512 417.997C141.344 435.635 171.633 452.413 203.414 470.018ZM313.866 51.3211C313.866 50.5505 313.863 49.7783 313.861 49.0078C301.747 47.7332 289.316 44.0893 277.587 45.6677C251.92 49.1266 226.604 55.2161 201.153 60.2704C188.305 62.8213 175.474 65.4638 161.326 68.3287C181.037 75.2516 199.057 77.4902 218.199 71.8283C235.178 66.8046 252.902 64.2978 270.287 60.6302C284.82 57.5668 299.342 54.4269 313.866 51.3211ZM355.246 58.7158C341.063 53.3832 326.801 51.9982 315.093 54.4337C294.895 58.6377 274.695 62.8247 254.507 67.0762C238.124 70.5249 221.761 74.0567 205.39 77.553C205.366 78.4185 205.342 79.2824 205.318 80.1463C216.821 81.7196 228.9 86.3479 239.722 84.3146C278.005 77.1168 315.857 67.6413 355.246 58.7158ZM16.1818 366.257C42.2707 380.7 67.4067 394.615 93.0948 408.836C93.0948 401.435 93.6689 395.455 92.8587 389.671C92.4357 386.662 90.2411 382.804 87.6966 381.37C73.4538 373.342 58.8882 365.887 44.3515 358.388C42.5782 357.472 40.0184 356.603 38.3571 357.199C31.2722 359.741 24.3861 362.842 16.1818 366.257ZM234.475 36.9475C221.572 32.3752 208.673 29.4696 195.044 32.8606C186.303 35.0347 177.298 36.1634 168.408 37.735C142.658 42.2869 116.908 46.8235 91.1567 51.3686C91.0921 52.19 91.0276 53.0132 90.963 53.8363C101.377 55.1873 112.18 59.0128 122.138 57.453C159.733 51.5672 197.053 43.9315 234.475 36.9475ZM295.735 41.681C295.761 42.5958 295.785 43.5106 295.808 44.4253C307.981 45.4827 320.52 48.9212 332.252 47.1222C359.843 42.8911 387.053 36.1702 414.398 30.3878C415.509 30.1519 416.469 29.2134 419.389 27.4771C406.085 26.2602 394.555 22.9846 383.79 24.6496C354.268 29.2167 325.067 35.8613 295.735 41.681ZM162.84 24.1625C162.777 23.3699 162.714 22.579 162.651 21.7881C151.571 21.7881 140.394 20.8716 129.431 22.0036C113.159 23.6839 97.0322 26.7796 80.8529 29.3389C63.9076 32.0205 46.9742 34.7785 30.0356 37.5042C30.0204 38.3052 30.0051 39.1046 29.9915 39.9057C38.4675 40.6915 47.1491 43.0438 55.3823 41.9678C79.1696 38.8636 102.779 34.4034 126.45 30.4285C138.589 28.3902 150.712 26.2551 162.84 24.1625ZM61.2595 44.4084C61.1677 45.5099 61.076 46.6113 60.9843 47.7111C70.6035 47.891 80.362 49.1843 89.8131 48.0115C107.186 45.8544 124.381 42.2631 141.644 39.2404C158.836 36.2313 176.021 33.1848 193.207 30.1536C193.192 29.4391 193.175 28.7246 193.16 28.01C186.258 27.2972 179.133 25.1027 172.496 26.1177C135.353 31.7863 98.3265 38.2289 61.2595 44.4084ZM224.426 29.0436C238.321 34.7394 250.749 35.0789 263.713 31.6896C274.316 28.9163 285.292 27.5756 296.094 25.5525C310.625 22.8302 325.145 20.0638 339.667 17.3143C339.597 16.3299 339.526 15.3455 339.454 14.3612C328.626 14.3612 317.714 13.5244 306.99 14.5818C294.687 15.7953 282.551 18.6839 270.345 20.8563C255.48 23.4989 240.621 26.155 224.426 29.0436ZM373.764 23.078C373.785 21.8594 373.802 20.6408 373.822 19.4239C364.408 19.4239 354.869 18.4497 345.612 19.6462C330.773 21.5658 316.115 24.9076 301.387 27.6791C287.995 30.1977 274.611 32.7605 261.221 35.3029C273.599 39.6189 285.377 41.3059 298.3 38.1695C323.21 32.1291 348.584 28.0016 373.764 23.078ZM303.34 11.8527C303.467 11.3181 303.595 10.7818 303.726 10.2455C296.809 9.31539 289.656 6.75771 283.02 7.7319C251.91 12.294 220.939 17.8285 189.917 23.0169C189.873 23.8468 189.827 24.6784 189.781 25.5084C198.77 26.0684 207.997 28.2069 216.706 26.9001C245.682 22.5501 274.476 16.9647 303.34 11.8527ZM158.15 16.6388C158.085 17.4569 158.021 18.2766 157.958 19.093C164.528 20.0196 171.333 22.5298 177.631 21.6031C208.333 17.0801 238.898 11.6406 269.514 6.5235C269.424 5.69696 269.334 4.86873 269.242 4.04219C231.482 1.13998 195.314 13.7434 158.15 16.6388ZM206.806 438.359C206.806 450.136 207.019 459.718 206.73 469.285C206.543 475.46 209.251 478.615 215.824 479.635C215.824 468.83 215.824 458.221 215.824 447.902C224.973 443.216 233.486 438.858 241.998 434.498C230.234 435.207 221.518 450.295 206.806 438.359ZM131.826 404.432C122.521 399.529 114.538 395.321 105.357 390.483C106.011 399.6 106.539 406.972 107.142 415.372C115.705 411.577 123.023 408.335 131.826 404.432ZM37.1987 354.507C27.9769 349.697 20.2635 345.675 11.4002 341.053C11.9845 349.49 12.4567 356.291 12.9748 363.791C21.5222 360.515 28.546 357.823 37.1987 354.507ZM97.005 381.491C97.005 391.576 96.7077 401.348 97.2173 411.08C97.343 413.473 100.103 415.73 101.652 418.048C102.245 417.692 102.838 417.336 103.431 416.979C103.431 406.434 103.431 395.891 103.431 384.439C101.836 383.709 99.1503 382.475 97.005 381.491Z" fill="#B3B3B3"/>
<path fill-rule="evenodd" clip-rule="evenodd" d="M269.201 415.817C275.607 412.571 339.269 380.158 345.674 376.915C347.857 376.122 346.694 378.852 347.203 379.819C340.84 383.14 276.437 416.219 270.075 419.539C269.524 418.495 269.752 416.86 269.201 415.817Z" fill="#B3B3B3"/>
<path fill-rule="evenodd" clip-rule="evenodd" d="M394.509 354.726C400.915 351.481 440.594 331.372 447 328.129C449.182 327.336 448.019 330.066 448.529 331.033C442.166 334.354 402.826 353.833 396.463 357.153C395.914 356.107 391.279 358.879 394.509 354.726Z" fill="#B3B3B3"/>
<path fill-rule="evenodd" clip-rule="evenodd" d="M96.2372 259.934C114.92 267.731 133.603 275.528 152.286 283.323C151.897 284.256 151.51 285.192 151.123 286.123C132.44 278.325 113.757 270.53 95.0753 262.731C95.4626 261.799 95.8499 260.866 96.2372 259.934Z" fill="#B3B3B3"/>
</svg>
